HIERARCHY
ROOT Hips
{
  OFFSET 196.326 95.9168 97.7182
  CHANNELS 6 Xposition Yposition Zposition Zrotation Xrotation Yrotation
  JOINT LeftUpLeg
  {
    OFFSET 8.64259 1.95398 -2.38835
    CHANNELS 3 Zrotation Xrotation Yrotation
    JOINT LeftLeg
    {
      OFFSET 43.7702 0 0
      CHANNELS 3 Zrotation Xrotation Yrotation
      JOINT LeftFoot
      {
        OFFSET 40.6238 0 0
        CHANNELS 3 Zrotation Xrotation Yrotation
        JOINT LeftToeBase
        {
          OFFSET 12.7242 0 0
          CHANNELS 3 Zrotation Xrotation Yrotation
          End Site
          {
            OFFSET 0 0 0
          }
        }
      }
    }
  }
  JOINT RightUpLeg
  {
    OFFSET -8.2249 1.95398 -2.59336
    CHANNELS 3 Zrotation Xrotation Yrotation
    JOINT RightLeg
    {
      OFFSET 43.5653 0 0
      CHANNELS 3 Zrotation Xrotation Yrotation
      JOINT RightFoot
      {
        OFFSET 40.6238 0 0
        CHANNELS 3 Zrotation Xrotation Yrotation
        JOINT RightToeBase
        {
          OFFSET 12.7242 0 0
          CHANNELS 3 Zrotation Xrotation Yrotation
          End Site
          {
            OFFSET 0 0 0
          }
        }
      }
    }
  }
  JOINT Spine
  {
    OFFSET 0.165834 0.87714 6.61349
    CHANNELS 3 Zrotation Xrotation Yrotation
    JOINT Spine1
    {
      OFFSET 7.38963 1.71661e-005 0
      CHANNELS 3 Zrotation Xrotation Yrotation
      JOINT Spine2
      {
        OFFSET 11.9445 1.14441e-005 0
        CHANNELS 3 Zrotation Xrotation Yrotation
        JOINT Spine3
        {
          OFFSET 14.7254 4.19617e-005 0
          CHANNELS 3 Zrotation Xrotation Yrotation
          JOINT Spine4
          {
            OFFSET 10.9679 0 0
            CHANNELS 3 Zrotation Xrotation Yrotation
            JOINT RightShoulder
            {
              OFFSET 2.46616 -1.6653 3.69651
              CHANNELS 3 Zrotation Xrotation Yrotation
              JOINT RightArm
              {
                OFFSET 13.0012 0 0
                CHANNELS 3 Zrotation Xrotation Yrotation
                JOINT RightForeArm
                {
                  OFFSET 28.7848 1.52588e-005 0
                  CHANNELS 3 Zrotation Xrotation Yrotation
                  JOINT RightHand
                  {
                    OFFSET 26.5688 1.52588e-005 0
                    CHANNELS 3 Zrotation Xrotation Yrotation
                    End Site
                    {
                      OFFSET 0 0 0
                    }
                  }
                }
              }
            }
            JOINT LeftShoulder
            {
              OFFSET 2.38034 -1.29275 -3.75231
              CHANNELS 3 Zrotation Xrotation Yrotation
              JOINT LeftArm
              {
                OFFSET 16.3182 6.10351e-005 0
                CHANNELS 3 Zrotation Xrotation Yrotation
                JOINT LeftForeArm
                {
                  OFFSET 27.0901 0 0
                  CHANNELS 3 Zrotation Xrotation Yrotation
                  JOINT LeftHand
                  {
                    OFFSET 24.5451 1.52588e-005 0
                    CHANNELS 3 Zrotation Xrotation Yrotation
                    End Site
                    {
                      OFFSET 0 0 0
                    }
                  }
                }
              }
            }
            JOINT Neck
            {
              OFFSET 5.0226 -0.0266342 0
              CHANNELS 3 Zrotation Xrotation Yrotation
              JOINT Head
              {
                OFFSET 6.69363 2.86102e-005 0
                CHANNELS 3 Zrotation Xrotation Yrotation
                End Site
                {
                  OFFSET 0 0 0
                }
              }
            }
          }
        }
      }
    }
  }
}
MOTION
Frames:	18
Frame Time:	0.0416667
-7.03892 97.3727 -36.1167 -57.0484 -84.7354 -57.3353 -172.435 6.78077 91.0777 -6.74091 10.3558 -0.439581 58.9582 4.21056 11.3387 37.5706 8.36138 -31.0138 178.042 8.32877 88.91 -13.6741 7.37454 -0.966665 64.6023 -1.90417 -1.02039 30.8082 -0.897982 22.2496 -0.0808254 6.64652 -89.9804 13.5873 -0.150792 0.0587668 1.91635 -0.14805 0.0653353 -20.6189 -0.161484 0.0107401 -0.606223 -0.161485 0.0107225 81.0831 -49.9459 -114.309 27.0804 -9.39163 5.3514 -7.31649 -16.0818 -37.9326 -5.10778 -0.500179 3.87686 -104.157 -43.0758 54.9166 -27.734 10.2984 4.33597 3.04167 10.1312 -29.5749 14.368 1.01549 3.13633 17.2999 3.02189 -0.277739 -10.1311 2.94231 2.13236 
-7.05915 97.3381 -36.0702 -57.9322 -84.6476 -58.2428 -172.322 6.69956 91.1461 -6.73635 11.07 -0.602992 59.0091 4.40275 11.7033 37.1725 8.16389 -29.3066 178.136 8.0291 88.9988 -13.189 7.74262 -1.08742 64.8434 -1.97036 -1.04753 30.7136 -0.948369 22.7906 -0.081957 6.64654 -89.9954 13.5959 -0.160224 0.0301013 1.92496 -0.158751 0.0371172 -20.6103 -0.161869 -0.0194499 -0.597635 -0.161865 -0.0194458 81.1695 -49.6549 -114.292 27.2311 -9.85195 5.2637 -7.91051 -17.8171 -37.067 -5.89963 -0.606998 5.16745 -103.976 -43.1665 55.2337 -28.0841 9.81328 4.35851 3.46875 10.0713 -30.1773 13.2126 1.20726 5.08342 17.3635 3.0864 -0.211157 -10.5162 2.96347 2.57326 
-7.05343 97.362 -36.0674 -58.1979 -84.6667 -58.4937 -172.306 6.68023 91.163 -6.74964 10.8451 -0.589727 59.0187 4.3625 11.5534 37.2682 8.20429 -29.9688 178.116 8.08527 89.0069 -13.2981 7.99298 -1.05549 64.5469 -1.85549 -0.97947 31.0783 -0.867342 23.0955 -0.0786679 6.64655 -89.9983 13.5789 -0.15512 0.0236189 1.90798 -0.153943 0.0304073 -20.6272 -0.155055 -0.0241002 -0.614599 -0.155057 -0.0241103 81.2072 -49.6677 -114.23 27.235 -9.89386 5.35528 -7.98103 -17.6223 -37.5731 -5.55374 -0.594988 5.55027 -104.046 -43.1903 55.1387 -28.0583 9.82125 4.33319 3.32101 9.78221 -30.1063 13.0422 1.2054 5.18314 17.3748 3.01284 -0.169082 -10.436 2.88422 2.4946 
-7.05209 97.3556 -36.0292 -57.6306 -84.6688 -57.9431 -172.356 6.69545 91.125 -6.75376 11.0036 -0.561209 59.0073 4.43311 11.7603 37.7299 8.50675 -29.8919 178.13 8.20304 88.9345 -13.6053 7.00346 -1.12736 64.62 -1.87418 -0.993266 31.2415 -0.755808 21.5934 -0.0805502 6.64654 -90.0034 13.5773 -0.161343 0.0140804 1.90633 -0.16057 0.0211587 -20.6289 -0.158124 -0.0350639 -0.616265 -0.158122 -0.0350657 81.397 -49.4076 -114.047 27.5283 -9.95726 5.28667 -7.99832 -17.8752 -37.3355 -5.81029 -0.612253 5.45534 -104.098 -43.2696 55.0981 -28.0624 9.84023 4.29557 3.25415 9.71551 -30.0114 13.0084 1.15342 4.82153 17.2261 3.06758 -0.0671354 -10.2336 2.91793 2.32235 
-7.05856 97.3463 -35.9791 -56.6248 -84.6362 -56.8478 -172.3 6.76557 91.2186 -6.74567 10.9291 -0.574978 59.1159 4.39616 11.4318 36.7592 7.8829 -29.6481 178.204 8.1425 89.0519 -13.3876 7.11628 -1.14019 64.7968 -1.96617 -1.0475 30.8114 -0.874392 21.7721 -0.0681429 6.64652 -90.0196 13.5809 -0.144637 -0.0205397 1.90992 -0.145391 -0.0141623 -20.6253 -0.131777 -0.063058 -0.612644 -0.131766 -0.0630601 81.5025 -49.3112 -113.925 27.5216 -10.0382 5.3517 -8.01146 -17.6893 -37.8469 -5.52466 -0.598525 5.71156 -104.194 -43.273 54.9558 -28.105 9.71565 4.30691 3.40264 9.78436 -30.1318 12.95 1.13969 4.75647 17.2281 3.1252 0.092987 -10.2598 2.9332 2.12952 
-7.06231 97.3368 -35.8681 -55.7831 -84.868 -56.0564 -172.329 6.65548 91.1734 -6.74667 11.3773 -0.590653 59.0567 4.46641 11.7394 37.5656 8.4263 -29.2056 178.044 7.94873 88.946 -13.3216 7.249 -1.02577 64.8725 -1.95921 -1.04326 30.915 -0.844605 21.7048 -0.092378 6.65073 -90.0193 13.5724 -0.192513 -0.0136483 1.9015 -0.192922 -0.00516775 -20.6338 -0.179513 -0.0708719 -0.621118 -0.179511 -0.0708751 81.1641 -49.504 -114.358 27.4178 -9.73756 5.68142 -8.29035 -17.685 -37.9458 -5.56782 -0.602445 5.71549 -104.369 -43.2493 54.6798 -28.2144 9.5746 4.41834 3.45097 9.80313 -30.0457 12.9242 1.08536 4.36966 16.9958 3.10231 0.0281733 -10.0738 2.9276 2.35013 
-7.06855 97.3388 -35.8348 -56.522 -84.7988 -56.8634 -172.35 6.60886 91.1165 -6.75428 11.2892 -0.59574 58.994 4.42807 11.7613 37.6678 8.49186 -29.268 178.083 7.98389 88.9022 -13.4458 7.12361 -1.10827 64.9455 -1.96754 -1.04801 30.918 -0.841546 21.6573 -0.0900392 6.66138 -90.0048 13.552 -0.180844 0.0138523 1.88103 -0.180059 0.0217921 -20.6542 -0.176648 -0.0411362 -0.641569 -0.176654 -0.0411436 81.2108 -49.54 -114.274 27.3793 -9.81649 5.56233 -8.20052 -17.6427 -37.957 -5.37713 -0.58651 5.6878 -104.352 -43.275 54.718 -28.2126 9.54047 4.5192 3.5541 9.80752 -30.273 12.7111 1.12226 4.77235 17.1077 3.11726 0.0195602 -10.1699 2.94399 2.29152 
-7.04287 97.3486 -35.7693 -56.4409 -84.7626 -56.7092 -172.372 6.58811 91.1367 -6.77485 10.8737 -0.49566 59.1669 4.44759 11.3968 37.0026 8.06237 -28.9969 178.086 7.87642 88.9604 -13.2383 7.41837 -1.07686 64.8386 -1.96078 -1.0438 30.9041 -0.883243 22.4694 -0.0942846 6.66215 -90.0118 13.5385 -0.192691 0.0012661 1.86753 -0.192439 0.00974558 -20.6677 -0.184162 -0.0566985 -0.655081 -0.184164 -0.0567083 81.2064 -49.4675 -114.309 27.5266 -9.77547 5.47704 -8.22022 -17.593 -37.7232 -5.37308 -0.579694 5.49019 -104.313 -43.2344 54.7566 -28.2996 9.45098 4.5323 3.51095 9.57405 -30.3517 12.7754 1.18392 5.19136 17.1553 3.15431 0.0600962 -10.2423 2.97126 2.1326 
-7.06447 97.3143 -35.6277 -54.8717 -84.6669 -55.0982 -172.372 6.71782 91.1552 -6.82357 11.3028 -0.543319 58.9204 4.62167 12.2964 38.0682 8.73288 -29.7458 178.17 7.9559 89.036 -13.2573 7.39576 -1.12371 65.0228 -2.00608 -1.06915 31.0904 -0.814517 22.0361 -0.0774772 6.65824 -89.9951 13.5483 -0.151243 0.0293262 1.87734 -0.149806 0.0359444 -20.6579 -0.153072 -0.0174942 -0.645228 -0.153064 -0.0174822 81.293 -49.7374 -114.076 27.4318 -9.73498 5.29292 -8.16679 -17.7844 -37.3923 -5.50726 -0.581593 5.22153 -104.124 -42.9271 54.8944 -28.422 9.42314 4.31397 3.54595 9.77387 -30.1391 12.7529 1.18922 5.24695 17.331 2.96756 -0.521709 -10.1716 2.94778 2.51883 
-7.09215 97.2947 -35.551 -54.9037 -84.4774 -55.0968 -172.218 6.82934 91.2514 -6.95043 11.0778 -0.667231 59.2025 4.87298 12.0332 37.9183 8.64708 -29.4717 178.226 8.00238 89.0754 -13.2268 7.18519 -1.16715 65.127 -2.05285 -1.09552 30.9409 -0.871989 22.4387 -0.0567467 6.66124 -89.9977 13.5517 -0.111382 0.0191054 1.88081 -0.110429 0.0239869 -20.6544 -0.111966 -0.015247 -0.641736 -0.111972 -0.0152516 81.2345 -49.8259 -114.129 27.2354 -9.85635 5.31733 -8.02384 -17.5009 -37.3463 -5.36485 -0.551439 4.65213 -104.152 -43.0167 54.896 -28.3593 9.29798 4.33214 3.78689 10.1528 -30.2261 12.9779 1.1712 4.97173 17.5993 2.87499 -0.409012 -10.3872 2.83116 2.19251 
-7.03539 97.2629 -35.3511 -55.0177 -84.58 -55.1292 -172.103 6.70304 91.3424 -7.05453 11.5617 -0.771703 59.2692 5.21716 12.5049 38.0309 8.71302 -29.6538 178.102 7.71677 89.0501 -13.1443 7.05826 -1.07688 65.397 -2.12868 -1.13711 30.8643 -0.898242 22.5628 -0.0685985 6.66748 -90.012 13.5389 -0.141833 -0.00570287 1.86797 -0.141944 0.000540391 -20.6672 -0.133564 -0.0480632 -0.654597 -0.13356 -0.0480641 81.1662 -49.652 -114.297 27.4001 -9.6787 5.54839 -8.20674 -17.6338 -37.5081 -5.50248 -0.573408 5.00728 -104.01 -43.1598 55.1798 -28.3145 9.53829 4.1838 3.47893 9.92354 -29.9573 13.2903 1.18616 4.89218 17.3187 2.80948 -0.186373 -10.0374 2.71363 2.07013 
-6.91054 97.2308 -35.1206 -55.0861 -84.3099 -55.4564 -172.149 6.66718 91.0031 -7.1298 10.8456 -0.822402 59.5596 5.54227 12.4755 38.0872 8.73354 -30.0166 177.934 7.92029 88.7023 -13.4698 6.67358 -1.08332 65.4898 -2.08065 -1.10628 31.3834 -0.767032 22.7015 -0.039457 6.65702 -89.9668 13.5599 -0.0621171 0.0744542 1.88895 -0.0587791 0.0771022 -20.6462 -0.0816306 0.0523363 -0.63357 -0.0816159 0.0523459 80.9411 -50.1528 -114.439 26.9258 -9.68296 5.5045 -8.07303 -18.1152 -37.0367 -5.83137 -0.602072 5.08909 -103.991 -43.0457 55.1542 -28.3437 9.65794 4.28812 3.24851 9.4795 -29.9816 13.2448 1.15178 4.67087 17.2773 2.74676 -0.754779 -9.79472 2.80349 2.7666 
-6.70809 97.2102 -34.8935 -54.9549 -84.161 -55.6344 -171.963 6.63054 90.733 -7.20959 11.3742 -1.25122 59.6122 5.90916 12.9259 38.1148 8.79709 -28.9873 177.788 8.01826 88.2656 -13.7045 6.31168 -1.18502 65.6715 -2.01948 -1.06528 31.7915 -0.652206 22.546 -0.0300764 6.67341 -89.9677 13.5271 -0.0439388 0.0704592 1.85612 -0.0407879 0.0723203 -20.679 -0.0630891 0.0539943 -0.666383 -0.0630823 0.0539938 81.3229 -49.5663 -114.096 27.1487 -9.694 5.60586 -8.28765 -18.0819 -38.0627 -5.07465 -0.569417 5.83281 -104.282 -43.3087 54.8408 -28.487 9.43061 4.38581 3.57592 9.62507 -30.4574 13.4357 1.21383 5.00457 17.3864 2.99667 -0.064769 -9.59428 2.86632 2.12768 
-6.40342 97.1191 -34.5906 -54.3463 -83.5469 -54.9306 -172.077 6.96284 90.5492 -7.5578 10.9057 -1.1807 59.5625 6.3236 13.4776 38.7021 9.23007 -28.1285 177.783 8.05332 88.1825 -13.2901 5.5627 -1.20962 65.7515 -2.06323 -1.08785 32.2905 -0.476095 21.2871 0.0269869 6.66939 -89.9694 13.5351 0.0684326 0.0524922 1.86412 0.0706769 0.0494208 -20.671 0.0494845 0.0706309 -0.658391 0.0494865 0.0706215 81.2137 -49.7507 -114.189 26.7868 -9.59975 5.36709 -7.84083 -17.9734 -37.0963 -6.06383 -0.617704 5.08364 -104.172 -43.2566 54.9807 -28.5521 9.56959 4.19154 3.62457 9.74806 -30.5719 12.5586 1.15524 5.11368 17.6026 2.93177 -0.768591 -9.40877 2.99664 2.76163 
-5.92882 97.0116 -34.19 -51.518 -83.4037 -52.1012 -172.352 7.65336 90.106 -8.93638 10.3522 -1.01934 60.3915 7.42969 13.8714 38.1991 8.98066 -26.2561 177.847 8.15967 87.9456 -13.3443 5.47007 -1.42394 66.1353 -2.12601 -1.12053 33.5345 -0.144639 19.9042 0.0260317 6.67582 -89.9945 13.5223 0.0543479 0.0039867 1.85134 0.0544677 0.00158266 -20.6838 0.0506374 0.0201357 -0.671187 0.0506324 0.020128 81.1488 -49.9948 -114.192 26.1008 -9.60974 5.62441 -7.95991 -17.7159 -37.7798 -6.00716 -0.62757 5.49168 -104.138 -43.2172 55.0128 -28.9896 9.7618 3.82926 3.4938 9.76461 -30.4413 13.031 1.18411 5.03409 17.5587 2.95294 -0.596151 -9.09262 2.97603 2.67495 
-5.39791 96.8591 -33.8373 -49.0474 -83.2378 -49.6741 -172.658 8.58723 89.5384 -10.8827 9.40511 -0.807396 62.0153 8.90629 13.8406 37.2474 8.35064 -25.3481 177.794 8.41754 87.6264 -13.6264 5.84257 -1.53851 66.6838 -2.3069 -1.21975 35.775 0.410194 19.3639 0.0248624 6.68802 -89.9994 13.4978 0.0496454 -0.00524757 1.82689 0.0493705 -0.00743932 -20.7083 0.0489267 0.00991442 -0.695626 0.048927 0.00990558 81.2247 -49.6488 -114.212 26.3482 -8.94488 5.86927 -8.09926 -17.5428 -37.94 -5.73455 -0.606645 5.50926 -104.257 -43.2898 54.8682 -29.1554 9.73887 3.69971 3.67894 10.0759 -30.5755 13.1111 1.23511 5.3552 17.1871 2.93066 -0.886511 -8.5158 3.04837 2.87939 
-4.58965 96.6894 -33.1833 -49.5751 -83.1332 -50.1521 -173.027 8.43954 88.8972 -11.7526 9.51679 -0.616897 63.2229 10.5882 14.7149 36.405 7.74527 -25.7332 177.928 8.5139 87.3541 -14.5103 5.98787 -1.96704 67.338 -2.49135 -1.3127 38.5214 1.00284 17.4833 0.0404178 6.72738 -90.0053 13.4191 0.0777001 -0.0204644 1.74816 0.0767244 -0.0238747 -20.787 0.0802497 0.00383307 -0.774367 0.0802514 0.00382371 81.4768 -49.075 -114.054 26.9911 -8.10528 6.42903 -7.80132 -16.5756 -37.755 -5.49441 -0.567095 5.03616 -104.324 -43.3285 54.7869 -29.3151 10.2805 3.68836 3.57924 10.1311 -30.9401 13.5399 1.15435 4.51968 16.6422 2.76196 -1.08021 -8.0111 2.94984 2.94936 
-3.69335 96.4994 -32.4282 -47.4588 -82.8644 -47.3875 -173.124 9.34313 88.8634 -13.9198 9.12102 -0.445142 65.1525 11.592 13.9866 35.3756 7.00792 -27.0329 178.51 9.0209 87.7712 -15.5511 6.89429 -2.48063 67.5992 -2.85957 -1.51682 40.6171 1.43767 17.0146 0.0498862 6.74635 -90.0908 13.3811 0.0551371 -0.188788 1.71014 0.0467586 -0.19104 -20.8249 0.109317 -0.163499 -0.812272 0.109314 -0.163497 81.4577 -49.2146 -114.029 26.6588 -7.97413 6.65582 -7.9011 -16.9212 -36.888 -6.21772 -0.571158 3.77951 -104.18 -43.4963 55.0835 -29.2801 11.1643 2.78635 3.21059 10.3303 -30.8074 13.2926 1.09486 4.23114 16.2814 2.72064 -0.985447 -7.37053 2.89683 3.11594 
